HIERARCHY
ROOT Hips
{
	OFFSET	0.00	0.00	0.00
	CHANNELS 6 Xposition Yposition Zposition Zrotation Xrotation Yrotation
	JOINT LeftUpLeg
	{
		OFFSET	 0.126116	-0.014019	-0.065224
		CHANNELS 3 Zrotation Xrotation Yrotation
		JOINT LeftLeg
		{
			OFFSET	 0.000000	 0.000000	 0.569914
			CHANNELS 3 Zrotation Xrotation Yrotation
			JOINT LeftFoot
			{
				OFFSET	 0.000000	 0.000000	 0.544423
				CHANNELS 3 Zrotation Xrotation Yrotation
				JOINT LeftToeBase
				{
					OFFSET	 0.000000	 0.000000	 0.207117
					CHANNELS 3 Zrotation Xrotation Yrotation
					End Site
					{
						OFFSET	 0.000000	 0.000000	 0.207117
					}
				}
			}
		}
	}
	JOINT RightUpLeg
	{
		OFFSET	-0.124023	-0.008373	-0.065224
		CHANNELS 3 Zrotation Xrotation Yrotation
		JOINT RightLeg
		{
			OFFSET	 0.000000	 0.000000	 0.570047
			CHANNELS 3 Zrotation Xrotation Yrotation
			JOINT RightFoot
			{
				OFFSET	 0.000000	 0.000000	 0.544354
				CHANNELS 3 Zrotation Xrotation Yrotation
				JOINT RightToeBase
				{
					OFFSET	 0.000000	 0.000000	 0.207540
					CHANNELS 3 Zrotation Xrotation Yrotation
					End Site
					{
						OFFSET	 0.000000	 0.000000	 0.207540
					}
				}
			}
		}
	}
	JOINT Spine
	{
		OFFSET	 0.000184	-0.007763	 0.117403
		CHANNELS 3 Zrotation Xrotation Yrotation
		JOINT Spine1
		{
			OFFSET	 0.000000	 0.000000	 0.137269
			CHANNELS 3 Zrotation Xrotation Yrotation
			JOINT Spine2
			{
				OFFSET	 0.000000	 0.000000	 0.156879
				CHANNELS 3 Zrotation Xrotation Yrotation
				JOINT LeftShoulder
				{
					OFFSET	 0.080501	-0.002496	 0.160144
					CHANNELS 3 Zrotation Xrotation Yrotation
					JOINT LeftArm
					{
						OFFSET	 0.000000	 0.000000	 0.164363
						CHANNELS 3 Zrotation Xrotation Yrotation
						JOINT LeftForeArm
						{
							OFFSET	 0.000000	 0.000000	 0.364576
							CHANNELS 3 Zrotation Xrotation Yrotation
							JOINT LeftHand
							{
								OFFSET	 0.000000	 0.000000	 0.360812
								CHANNELS 3 Zrotation Xrotation Yrotation
								JOINT LeftHandIndex1
								{
									OFFSET	 0.000000	 0.000000	 0.086006
									CHANNELS 3 Zrotation Xrotation Yrotation
									JOINT LeftHandIndex2
									{
										OFFSET	 0.000000	 0.000000	 0.047236
										CHANNELS 3 Zrotation Xrotation Yrotation
										JOINT LeftHandIndex3
										{
											OFFSET	-0.004284	-0.000551	 0.038166
											CHANNELS 3 Zrotation Xrotation Yrotation
											End Site
											{
												OFFSET	-0.004284	-0.000551	 0.038166
											}
										}
									}
								}
							}
						}
					}
				}
				JOINT Neck
				{
					OFFSET	 0.000000	 0.000000	 0.176489
					CHANNELS 3 Zrotation Xrotation Yrotation
					JOINT Head
					{
						OFFSET	 0.000000	-0.001747	 0.077940
						CHANNELS 3 Zrotation Xrotation Yrotation
						End Site
						{
							OFFSET	 0.000000	-0.001747	 0.077940
						}
					}
				}
				JOINT RightShoulder
				{
					OFFSET	-0.080363	 0.000306	 0.159706
					CHANNELS 3 Zrotation Xrotation Yrotation
					JOINT RightArm
					{
						OFFSET	 0.000000	 0.000000	 0.164196
						CHANNELS 3 Zrotation Xrotation Yrotation
						JOINT RightForeArm
						{
							OFFSET	 0.000000	 0.000000	 0.365611
							CHANNELS 3 Zrotation Xrotation Yrotation
							JOINT RightHand
							{
								OFFSET	 0.000000	 0.000000	 0.360648
								CHANNELS 3 Zrotation Xrotation Yrotation
								JOINT RightHandIndex1
								{
									OFFSET	 0.000000	 0.000000	 0.069977
									CHANNELS 3 Zrotation Xrotation Yrotation
									JOINT RightHandIndex2
									{
										OFFSET	 0.000000	 0.000000	 0.052305
										CHANNELS 3 Zrotation Xrotation Yrotation
										JOINT RightHandIndex3
										{
											OFFSET	 0.009002	-0.000782	 0.042196
											CHANNELS 3 Zrotation Xrotation Yrotation
											End Site
											{
												OFFSET	 0.009002	-0.000782	 0.042196
											}
										}
									}
								}
							}
						}
					}
				}
			}
		}
	}
}
MOTION
Frames:    6
Frame Time: 0.03333334
-0.055024	-2.231145	 1.161590	 3.977938	-1.728161	-2.944241	 31.178020	-15.683280	-177.277700	 0.229491	-50.538300	-0.079955	 115.362200	 82.183590	-119.438800	-2.371480	 31.262580	-0.061967	-33.964010	-35.144740	-175.733900	 12.874600	-61.376260	 12.018670	 3.016541	 75.267300	 4.796555	 2.357778	 33.174690	 0.107286	-9.707993	 9.672482	 2.107804	-1.396795	 0.087271	-0.991410	 1.225484	 0.976986	 0.847311	-93.753400	 58.853190	 175.795700	 6.151026	 27.102370	-41.246940	 13.461590	-1.574104	-6.179252	-16.018350	-4.986843	-7.497712	-4.869494	 19.239940	-2.786536	-3.891345	 21.346980	 2.212729	-4.808204	 5.546195	 0.146929	-0.130658	-5.009776	 0.156222	-0.986010	 3.734367	 3.015137	 89.837080	 61.575170	-179.869200	-18.352450	 47.220970	 16.262310	-15.226760	-1.625836	 6.221114	 11.674600	 6.946308	-1.244543	 6.305484	 26.094440	-0.580339	 1.713631	 46.052880	-6.839331	 0.330704	 25.127500	 3.668575
-0.056987	-2.279011	 1.161204	 4.591825	-1.385665	-2.896424	 30.020280	-13.536580	-178.683500	 0.816638	-49.608720	 0.300376	 129.155400	 82.517930	-133.118300	-2.370387	 31.448000	-0.066154	-36.485840	-37.702440	-179.309300	 11.775770	-56.189000	 10.465370	-5.875628	 74.480800	 14.861000	 2.358408	 33.082400	 0.105137	-15.669490	 9.465210	 2.041413	-1.652167	 0.427250	-1.121678	 1.311692	 0.637387	 0.980403	-93.868270	 58.944970	 175.540100	 4.411541	 24.701470	-41.846680	 15.423790	-2.158085	-7.169237	-15.811880	-4.926040	-8.543825	-4.869226	 19.245070	-2.786482	-3.886790	 21.405460	 2.208101	-4.808259	 5.545506	 0.146967	-0.096382	-5.050687	 0.173705	-0.791009	 3.618908	 2.891108	 89.800990	 61.621500	-179.955100	-18.632430	 48.597580	 14.458870	-18.050040	-2.221007	 7.212961	 11.828840	 7.183108	-1.469891	 6.297988	 25.311850	-0.555118	 1.824819	 45.186500	-6.938952	 0.461492	 24.559670	 3.601236
-0.058640	-2.315276	 1.158969	 5.110487	-1.080734	-2.872771	 28.987020	-12.051350	-179.707400	 1.144868	-49.060320	 0.598412	 140.055200	 82.458920	-143.987300	-2.369462	 31.604220	-0.069684	-38.427190	-39.246890	 177.880800	 11.064640	-51.550220	 9.309766	-12.263010	 73.936430	 21.791130	 2.358907	 33.009280	 0.103433	-20.148090	 9.279381	 1.977118	-1.806747	 0.686819	-1.183101	 1.380445	 0.357980	 1.070354	-93.968120	 59.016490	 175.318100	 3.130859	 22.874780	-42.265230	 16.846100	-2.657850	-7.887704	-15.598620	-4.863186	-9.391925	-4.868666	 19.258750	-2.787252	-3.882606	 21.459070	 2.203846	-4.808016	 5.548430	 0.146801	-0.067486	-5.084139	 0.190437	-0.631785	 3.519286	 2.789379	 89.768830	 61.662090	 179.968400	-18.709670	 49.551940	 13.120010	-20.135430	-2.728959	 7.931234	 11.859450	 7.401083	-1.667474	 6.291342	 24.623000	-0.536619	 1.918234	 44.434680	-7.022274	 0.578889	 24.044900	 3.541688
-0.060642	-2.354295	 1.155163	 5.613346	-0.586178	-2.883183	 28.041770	-10.605250	 179.335100	 1.368891	-48.503570	 0.761146	 151.412800	 82.164740	-155.189300	-2.368594	 31.747980	-0.072944	-40.551480	-40.563650	 174.777600	 10.720900	-46.167320	 8.333746	-19.457220	 73.305400	 29.177990	 2.359000	 32.995830	 0.103125	-24.689710	 8.927719	 1.866586	-1.971646	 0.898695	-1.175077	 1.446743	 0.080192	 1.131438	-94.095700	 59.018680	 175.045500	 1.789702	 21.044990	-42.601720	 18.645200	-3.238616	-8.613381	-15.211300	-5.038222	-9.909144	-4.864621	 19.368750	-2.795782	-3.875316	 21.552120	 2.196444	-4.804891	 5.585238	 0.144644	-0.041494	-5.103103	 0.227668	-0.487026	 3.421952	 2.722720	 89.720200	 61.720830	 179.852100	-18.691500	 50.495570	 11.720280	-22.510810	-3.316158	 8.653912	 11.731660	 7.612154	-1.927647	 6.278383	 23.699480	-0.549555	 2.025016	 43.547450	-7.117071	 0.770779	 23.193250	 3.446234
-0.062808	-2.390121	 1.150873	 6.033347	-0.138345	-2.924053	 27.217030	-9.201259	 178.475500	 1.556561	-47.877420	 0.892966	 161.113300	 81.687830	-164.752400	-2.367700	 31.894890	-0.076280	-42.220870	-41.492380	 172.179100	 10.541420	-41.665580	 7.566229	-25.541080	 73.462220	 34.960900	 2.359312	 32.951080	 0.102081	-28.550690	 8.594733	 1.790504	-2.129858	 1.015575	-1.182346	 1.505572	-0.129205	 1.189495	-94.209660	 59.013100	 174.803100	 0.769017	 19.621330	-42.838310	 20.150260	-3.783363	-9.215232	-14.947720	-5.255196	-10.270830	-4.860026	 19.487370	-2.803905	-3.867939	 21.646230	 2.188951	-4.801350	 5.626878	 0.142207	-0.020226	-5.124016	 0.261623	-0.364073	 3.332209	 2.671912	 89.670970	 61.780720	 179.733800	-18.583790	 51.270480	 10.448900	-24.631010	-3.869237	 9.255122	 11.582280	 7.799534	-2.227253	 6.265505	 22.823100	-0.565621	 2.119066	 42.740380	-7.200147	 0.953719	 22.369550	 3.357439
-0.065130	-2.426595	 1.145563	 6.258135	 0.299124	-3.103830	 26.612560	-7.524777	 177.692700	 1.678413	-47.024740	 0.970021	 170.355100	 80.879100	-173.845800	-2.366338	 32.114600	-0.081288	-43.202660	-42.972480	 169.840300	 10.640330	-38.318040	 7.124988	-28.871960	 72.839710	 37.945220	 2.360624	 32.753730	 0.097518	-32.078390	 8.194446	 1.855358	-2.280643	 1.232500	-1.195799	 1.582703	-0.338036	 1.237690	-94.311580	 58.970780	 174.592300	-0.162852	 18.414070	-43.124610	 21.343890	-4.349700	-9.778454	-15.022400	-5.775827	-10.114770	-4.851288	 19.691030	-2.813421	-3.857195	 21.782830	 2.178028	-4.794628	 5.706099	 0.137559	-0.010682	-5.161725	 0.295279	-0.263291	 3.244149	 2.667755	 89.598940	 61.869370	 179.559800	-18.334930	 51.974360	 9.161131	-26.950810	-4.443791	 9.810246	 11.317140	 7.958046	-2.819474	 6.247881	 21.795900	-0.601046	 2.208126	 41.953010	-7.278447	 1.180052	 21.334700	 3.250639
